<svg width="50" height="50" viewBox="0 0 50 50" fill="none" xmlns="http://www.w3.org/2000/svg">
<rect width="50" height="50" rx="10" fill="#A2A1A8" fill-opacity="0.1"/>
<path d="M18.6796 21.794C19.0538 18.4909 21.7709 16 25 16C28.2291 16 30.9462 18.4909 31.3204 21.794L31.6652 24.8385C31.7509 25.595 32.0575 26.3069 32.5445 26.88C33.5779 28.0964 32.7392 30 31.1699 30H18.8301C17.2608 30 16.4221 28.0964 17.4555 26.88C17.9425 26.3069 18.2491 25.595 18.3348 24.8385L18.6796 21.794Z" stroke="#16151C" stroke-width="1.5" stroke-linejoin="round"/>
<path d="M28 32C27.5633 33.1652 26.385 34 25 34C23.615 34 22.4367 33.1652 22 32" stroke="#16151C" stroke-width="1.5" stroke-linecap="round"/>
</svg>
